# xmcd
#
# Track frame offsets:
#	150
#	21236
#	39992
#	57331
#	79402
#	101344
#	119828
#	141111
#	163502
#	186878
#	204461
#	225818
#	247144
#	266639
#	293647
#
# Disc length: 4178 seconds
#
# Revision: 0
# Processed by: cddbd v1.5.2PL0 Copyright (c) Steve Scherf et al.
# Submitted via: EasyCDDAExtractor 10.5.1.1
#
DISCID=d210500f
DTITLE=Various Artist - Soul Exposed
DYEAR=2005
DGENRE=Soul
TTITLE0=Emel - Thinkin' About You
TTITLE1=Avila Brothers (Feat Shelea) - Let It Go
TTITLE2=Dana Divine - So EZ
TTITLE3=Ian Martin (feat Gavin Christopher) - Brother
TTITLE4=Funky Boudoir - Never Knew Love Like This
TTITLE5=Brenda Vaughn - Sistuh's Shaking Up
TTITLE6=Dessy Di Lauro feat Ric'key Pageot - When Youi Need Me
TTITLE7=Maysa Leak - Dangerous Summer Night
TTITLE8=Kokoh - How Far Can We Go
TTITLE9=Innervoices  - Slow Jam Of The Year
TTITLE10=Heavy - Do For You
TTITLE11=Dee Dee Wilde - That Place in My heart
TTITLE12=Denise Tichenor - No Matter What The Weather May Be
TTITLE13=Ane - Anytime, Any Place
TTITLE14=Peggi Blu - Can't Go Back (Remix)
EXTD=
EXTT0=
EXTT1=
EXTT2=
EXTT3=
EXTT4=
EXTT5=
EXTT6=
EXTT7=
EXTT8=
EXTT9=
EXTT10=
EXTT11=
EXTT12=
EXTT13=
EXTT14=
PLAYORDER=
